<svg width="194" height="44" fill="none" xmlns="http://www.w3.org/2000/svg"><g clip-path="url(#clip0_43_31)" fill="#fff" fill-opacity=".2"><path d="M112.516 17.196h-7.637V18c2.389 0 2.773.508 2.773 3.515v5.42c0 3.007-.384 3.557-2.773 3.557-1.834-.254-3.071-1.228-4.778-3.091l-1.962-2.117c2.644-.466 4.052-2.117 4.052-3.98 0-2.33-2.004-4.107-5.759-4.107h-7.508V18c2.388 0 2.772.508 2.772 3.515v5.42c0 3.007-.384 3.557-2.772 3.557v.804h8.489v-.804c-2.389 0-2.772-.55-2.772-3.557v-1.524h.724l4.736 5.885h12.415c6.101 0 8.746-3.217 8.746-7.071 0-3.853-2.645-7.029-8.746-7.029zm-17.875 6.902v-5.631h1.749c1.92 0 2.773 1.312 2.773 2.837 0 1.482-.854 2.794-2.773 2.794h-1.75zm18.003 5.886h-.299c-1.535 0-1.748-.381-1.748-2.329v-9.189h2.047c4.437 0 5.247 3.218 5.247 5.717 0 2.583-.81 5.801-5.247 5.801zm-47.482-4.319l2.943-8.639c.854-2.498.47-3.217-2.26-3.217v-.847h8.02v.847c-2.688 0-3.327.635-4.394 3.726l-4.864 14.481h-.554L59.7 18.762l-4.438 13.254h-.554l-4.735-14.481c-1.024-3.091-1.707-3.726-4.181-3.726v-.847h9.47v.847c-2.516 0-3.2.593-2.303 3.217l2.858 8.639 4.31-12.703h.81l4.224 12.703zm14.504 6.182c-4.693 0-8.532-3.43-8.532-7.623 0-4.149 3.84-7.58 8.532-7.58 4.693 0 8.532 3.431 8.532 7.58 0 4.193-3.839 7.623-8.532 7.623zm0-13.889c-3.924 0-5.29 3.514-5.29 6.267 0 2.795 1.365 6.267 5.29 6.267 3.968 0 5.333-3.472 5.333-6.267 0-2.753-1.365-6.267-5.333-6.267zm52.133 12.492v.846h-9.77v-.846c2.859 0 3.371-.72 3.371-4.955V18.72c0-4.236-.512-4.912-3.371-4.912v-.848h8.831c4.394 0 6.826 2.245 6.826 5.251 0 2.922-2.432 5.208-6.826 5.208h-2.432v2.074c0 4.236.512 4.956 3.371 4.956zm-.939-15.965h-2.432v7.369h2.432c2.389 0 3.499-1.652 3.499-3.642 0-2.032-1.11-3.727-3.499-3.727zm36.135 12.831l-.213.762c-.384 1.398-.854 1.906-3.883 1.906h-.598c-2.217 0-2.602-.509-2.602-3.514v-1.948c3.328 0 3.584.296 3.584 2.498h.811v-6.31h-.811c0 2.202-.256 2.498-3.584 2.498v-4.742h2.346c3.03 0 3.499.508 3.883 1.906l.214.804h.682l-.298-3.98h-12.544V18c2.389 0 2.774.508 2.774 3.515v5.42c0 2.75-.327 3.443-2.21 3.542-1.79-.272-3.019-1.241-4.701-3.077l-1.963-2.116c2.646-.467 4.054-2.118 4.054-3.981 0-2.329-2.006-4.107-5.76-4.107h-7.508V18c2.388 0 2.773.508 2.773 3.515v5.42c0 3.006-.384 3.557-2.773 3.557v.804h8.49v-.805c-2.389 0-2.773-.55-2.773-3.556V25.41h.725l4.735 5.885h17.534l.257-3.98h-.641zm-22.611-3.218v-5.631h1.749c1.92 0 2.774 1.312 2.774 2.837 0 1.482-.854 2.794-2.774 2.794h-1.749zm31.271 7.749c-1.706 0-3.2-.89-3.84-1.44-.213.212-.597.847-.682 1.44h-.811v-5.843h.854c.341 2.794 2.303 4.445 4.821 4.445 1.365 0 2.474-.761 2.474-2.032 0-1.1-.981-1.948-2.73-2.752l-2.432-1.143c-1.707-.805-2.987-2.203-2.987-4.065 0-2.033 1.92-3.769 4.565-3.769 1.409 0 2.602.509 3.328 1.101.213-.17.427-.635.555-1.144h.811v4.998h-.896c-.3-1.99-1.408-3.642-3.669-3.642-1.195 0-2.305.678-2.305 1.737 0 1.1.897 1.693 2.945 2.625l2.345 1.143c2.049.973 2.859 2.54 2.859 3.81 0 2.668-2.347 4.531-5.205 4.531zm13.14 0c-1.707 0-3.2-.89-3.84-1.44-.213.212-.597.847-.682 1.44h-.81v-5.843h.852c.341 2.794 2.304 4.445 4.821 4.445 1.365 0 2.475-.761 2.475-2.032 0-1.1-.981-1.948-2.731-2.752l-2.432-1.143c-1.706-.805-2.986-2.203-2.986-4.065 0-2.033 1.92-3.769 4.565-3.769 1.408 0 2.602.509 3.328 1.101.213-.17.426-.635.554-1.144h.811v4.998h-.896c-.299-1.99-1.408-3.642-3.669-3.642-1.194 0-2.304.678-2.304 1.737 0 1.1.896 1.693 2.944 2.625l2.346 1.143c2.048.973 2.858 2.54 2.858 3.81 0 2.668-2.346 4.531-5.204 4.531zM3.128 21.843c0 7.418 4.344 13.827 10.642 16.865L4.763 14.217a18.55 18.55 0 00-1.635 7.627zm31.627-.945c0-2.316-.838-3.92-1.558-5.169-.957-1.543-1.854-2.85-1.854-4.393 0-1.723 1.317-3.327 3.17-3.327.084 0 .164.01.246.015a18.889 18.889 0 00-12.75-4.919 18.894 18.894 0 00-15.775 8.447c.443.013.86.022 1.215.022 1.975 0 5.032-.238 5.032-.238 1.018-.06 1.137 1.424.121 1.544 0 0-1.023.12-2.161.178l6.875 20.298 4.132-12.3-2.942-7.998c-1.016-.06-1.98-.18-1.98-.18-1.017-.058-.897-1.602.12-1.543 0 0 3.118.238 4.973.238 1.974 0 5.032-.238 5.032-.238 1.018-.06 1.138 1.424.121 1.544 0 0-1.025.12-2.16.178l6.822 20.145 1.883-6.247c.816-2.591 1.438-4.453 1.438-6.057zM22.34 23.483L16.675 39.82a19.009 19.009 0 0011.604-.299 1.648 1.648 0 01-.135-.258l-5.804-15.78zm16.236-10.63c.08.597.127 1.237.127 1.927 0 1.901-.358 4.039-1.436 6.712L31.5 38.042c5.613-3.25 9.389-9.285 9.389-16.198a18.54 18.54 0 00-2.313-8.991zM22.009 0C9.874 0 0 9.799 0 21.843 0 33.89 9.874 43.688 22.009 43.688s22.01-9.799 22.01-21.845C44.019 9.8 34.144 0 22.009 0zm0 42.686c-11.579 0-21-9.35-21-20.843 0-11.492 9.42-20.842 21-20.842 11.578 0 20.999 9.35 20.999 20.842 0 11.493-9.42 20.843-21 20.843z"/></g><defs><clipPath id="clip0_43_31"><path fill="#fff" d="M0 0h194v44H0z"/></clipPath></defs></svg>