<svg width="193" height="42" fill="none" xmlns="http://www.w3.org/2000/svg"><g clip-path="url(#clip0_43_12)" fill="#fff" fill-opacity=".2"><path d="M192.953 18.876v-3.438h-4.214v-5.343l-.142.045-3.958 1.226-.078.024v4.049h-6.247v-2.255c0-1.05.232-1.854.689-2.39.453-.53 1.102-.8 1.93-.8.595 0 1.211.143 1.831.423l.156.07v-3.62l-.073-.027c-.579-.21-1.366-.317-2.341-.317-1.229 0-2.346.271-3.32.808a5.711 5.711 0 00-2.278 2.282c-.535.974-.806 2.1-.806 3.346v2.48h-2.935v3.437h2.935v14.48h4.212v-14.48h6.247v9.201c0 3.79 1.765 5.711 5.245 5.711a8.5 8.5 0 001.789-.201c.626-.136 1.051-.273 1.302-.418l.056-.033v-3.47l-.172.115c-.228.155-.513.28-.847.374-.335.096-.615.144-.832.144-.815 0-1.418-.223-1.793-.662-.379-.443-.57-1.218-.57-2.302v-8.46h4.214zM161.76 30.3c-1.528 0-2.734-.514-3.583-1.526-.855-1.017-1.288-2.466-1.288-4.308 0-1.899.433-3.386 1.288-4.42.85-1.029 2.044-1.55 3.549-1.55 1.461 0 2.624.498 3.456 1.481.837.989 1.262 2.464 1.262 4.386 0 1.945-.4 3.44-1.187 4.44-.783.992-1.959 1.497-3.497 1.497zm.188-15.293c-2.917 0-5.234.866-6.885 2.573-1.651 1.708-2.488 4.07-2.488 7.024 0 2.806.817 5.062 2.429 6.706 1.611 1.645 3.804 2.478 6.517 2.478 2.828 0 5.099-.878 6.75-2.61 1.651-1.729 2.487-4.07 2.487-6.954 0-2.849-.785-5.122-2.333-6.755-1.55-1.634-3.729-2.462-6.477-2.462zm-16.165 0c-1.984 0-3.625.514-4.879 1.527-1.261 1.02-1.901 2.357-1.901 3.975 0 .841.138 1.589.41 2.223a4.457 4.457 0 001.259 1.665c.558.466 1.419.954 2.56 1.451.959.4 1.675.738 2.129 1.005.445.26.76.523.938.78.173.25.261.592.261 1.015 0 1.204-.89 1.789-2.721 1.789-.679 0-1.454-.143-2.303-.427a8.605 8.605 0 01-2.358-1.211l-.175-.127v4.108l.064.03c.596.28 1.348.514 2.233.699.885.185 1.687.28 2.385.28 2.153 0 3.887-.517 5.152-1.537 1.273-1.027 1.919-2.395 1.919-4.07 0-1.208-.348-2.243-1.032-3.079-.68-.828-1.86-1.589-3.507-2.261-1.311-.533-2.151-.976-2.498-1.316-.334-.328-.504-.792-.504-1.38 0-.52.21-.938.64-1.276.433-.34 1.036-.513 1.792-.513.702 0 1.42.112 2.134.332.714.22 1.341.515 1.864.876l.172.119v-3.897l-.066-.029c-.483-.21-1.119-.388-1.893-.534a11.45 11.45 0 00-2.075-.217zm-17.761 15.292c-1.529 0-2.734-.513-3.584-1.525-.855-1.017-1.287-2.466-1.287-4.308 0-1.899.433-3.386 1.288-4.42.849-1.029 2.043-1.55 3.549-1.55 1.46 0 2.623.498 3.456 1.481.836.989 1.261 2.464 1.261 4.386 0 1.945-.399 3.44-1.187 4.44-.782.992-1.958 1.497-3.496 1.497zm.188-15.292c-2.918 0-5.235.866-6.886 2.573-1.65 1.708-2.488 4.07-2.488 7.024 0 2.807.818 5.062 2.429 6.706 1.612 1.645 3.805 2.478 6.518 2.478 2.827 0 5.098-.878 6.749-2.61 1.651-1.729 2.488-4.07 2.488-6.954 0-2.849-.785-5.122-2.334-6.755-1.55-1.634-3.729-2.462-6.476-2.462zm-15.768 3.534v-3.103h-4.161v17.918h4.161V24.19c0-1.558.349-2.838 1.037-3.806.68-.955 1.585-1.439 2.691-1.439.375 0 .796.062 1.251.186.451.123.778.257.971.398l.174.128v-4.25l-.067-.028c-.388-.167-.936-.251-1.63-.251-1.045 0-1.981.34-2.782 1.01-.704.589-1.212 1.396-1.601 2.403h-.044zm-11.612-3.534c-1.91 0-3.612.415-5.06 1.232a8.25 8.25 0 00-3.337 3.476c-.76 1.484-1.146 3.216-1.146 5.149 0 1.693.374 3.246 1.113 4.615.74 1.372 1.788 2.445 3.114 3.189 1.324.743 2.854 1.12 4.549 1.12 1.977 0 3.666-.4 5.019-1.19l.055-.032v-3.861l-.175.13a7.798 7.798 0 01-2.036 1.073c-.735.26-1.406.391-1.994.391-1.632 0-2.943-.518-3.894-1.537-.954-1.022-1.437-2.456-1.437-4.262 0-1.816.504-3.287 1.498-4.373.99-1.082 2.303-1.631 3.902-1.631 1.368 0 2.7.469 3.961 1.396l.175.128v-4.068l-.057-.033c-.474-.269-1.121-.49-1.925-.66a11.353 11.353 0 00-2.326-.252h.001zm-12.41.431h-4.16v17.918h4.16V15.439zm-2.037-7.632a2.49 2.49 0 00-1.773.704 2.339 2.339 0 00-.743 1.758c0 .686.247 1.266.735 1.722.485.456 1.084.687 1.78.687.697 0 1.298-.231 1.79-.686a2.262 2.262 0 00.744-1.723c0-.674-.244-1.259-.724-1.74-.48-.479-1.089-.722-1.81-.722zM76 14.116v19.24h4.246V8.355H74.37l-7.47 18.57-7.25-18.57h-6.117v25h3.99v-19.24h.138l7.655 19.24h3.012l7.535-19.238H76zm-56.426 5.711H0V0h19.574v19.827zm21.612 0H21.612V0h19.574v19.827zM19.573 41.725H0V21.9h19.573v19.826zm21.613 0H21.612V21.9h19.574v19.826z"/></g><defs><clipPath id="clip0_43_12"><path fill="#fff" d="M0 0h193v42H0z"/></clipPath></defs></svg>