<svg width="194" height="49" fill="none" xmlns="http://www.w3.org/2000/svg"><g clip-path="url(#clip0_43_18)" fill="#fff" fill-opacity=".2"><path d="M61.986 38.403l2.42-5.592c2.616 1.942 6.09 2.952 9.525 2.952 2.537 0 4.137-.971 4.137-2.447-.039-4.116-15.184-.893-15.301-11.222-.039-5.242 4.645-9.28 11.28-9.28 3.943 0 7.886.97 10.696 3.184l-2.264 5.708c-2.576-1.631-5.777-2.796-8.822-2.796-2.068 0-3.434.97-3.434 2.213.039 4.039 15.301 1.826 15.457 11.688 0 5.359-4.567 9.126-11.125 9.126-4.801 0-9.212-1.127-12.569-3.534zm92.863-7.611l6.675 3.689a14.565 14.565 0 01-12.765 7.456c-8.08 0-14.638-6.524-14.638-14.562s6.558-14.561 14.638-14.561c5.465 0 10.266 3.028 12.765 7.455l-6.675 3.689c-1.21-2.097-3.474-3.533-6.09-3.533-3.864 0-6.987 3.106-6.987 6.95 0 3.844 3.123 6.95 6.987 6.95 2.616 0 4.88-1.436 6.089-3.533h.001zM89.037.738h8.353v40.655h-8.353V.738zm75.765 0h8.354v23.88l9.446-11.222h10.227L181.158 26.91l12.608 14.484h-10.695L173.156 29.2v12.193h-8.354V.738zM122.216 30.87v-6.873c-1.21-2.02-3.708-3.572-6.518-3.572-3.865 0-6.987 3.106-6.987 6.95 0 3.844 3.122 6.95 6.987 6.95 2.81 0 5.308-1.475 6.518-3.455zm0-17.473h8.354v27.957h-8.354v-3.3c-1.366 2.29-4.762 3.883-8.314 3.883-7.339 0-13.116-6.524-13.116-14.6 0-8.077 5.777-14.523 13.116-14.523 3.552 0 6.948 1.592 8.314 3.883v-3.301zM10.344 30.83c0 2.835-2.303 5.127-5.153 5.127a5.171 5.171 0 01-3.644-1.5A5.12 5.12 0 01.039 30.83c0-2.835 2.303-5.126 5.152-5.126h5.153v5.126zm2.576 0c0-2.834 2.303-5.125 5.153-5.125 2.85 0 5.152 2.291 5.152 5.126v12.814c0 2.834-2.303 5.125-5.152 5.125a5.17 5.17 0 01-3.645-1.5 5.119 5.119 0 01-1.507-3.625V30.83zm5.153-20.579a5.171 5.171 0 01-3.645-1.5 5.12 5.12 0 01-1.507-3.626C12.92 2.291 15.223 0 18.073 0s5.152 2.29 5.152 5.125v5.126h-5.152zm0 2.602c2.85 0 5.152 2.29 5.152 5.125s-2.303 5.126-5.152 5.126H5.153a5.171 5.171 0 01-3.645-1.5A5.118 5.118 0 010 17.978c0-2.834 2.303-5.125 5.152-5.125h12.921zm20.649 5.125c0-2.834 2.303-5.125 5.152-5.125 2.85 0 5.153 2.29 5.153 5.125s-2.303 5.126-5.153 5.126h-5.152v-5.126zm-2.577 0c0 2.835-2.302 5.126-5.152 5.126a5.171 5.171 0 01-3.645-1.5 5.12 5.12 0 01-1.507-3.626V5.125C25.84 2.291 28.144 0 30.993 0c2.85 0 5.153 2.29 5.153 5.125V17.98zM30.993 38.52c2.85 0 5.153 2.29 5.153 5.125 0 2.834-2.303 5.125-5.153 5.125a5.17 5.17 0 01-3.645-1.5 5.12 5.12 0 01-1.507-3.625v-5.126h5.152zm0-2.564a5.173 5.173 0 01-3.645-1.5 5.118 5.118 0 01-1.507-3.625c0-2.835 2.303-5.126 5.152-5.126h12.92c2.85 0 5.153 2.291 5.153 5.126 0 2.834-2.303 5.126-5.153 5.126h-12.92z"/></g><defs><clipPath id="clip0_43_18"><path fill="#fff" d="M0 0h194v49H0z"/></clipPath></defs></svg>