<svg width="157" height="51" fill="none" xmlns="http://www.w3.org/2000/svg"><g clip-path="url(#clip0_43_24)" fill="#fff" fill-opacity=".2"><path d="M152.11 31.168l4.356 2.875c-1.414 2.061-4.795 5.598-10.641 5.598-7.258 0-12.664-5.56-12.664-12.633 0-7.527 5.463-12.633 12.053-12.633 6.629 0 9.876 5.22 10.927 8.037l.573 1.438-17.077 6.997c1.298 2.534 3.324 3.82 6.188 3.82 2.866 0 4.852-1.4 6.285-3.499zm-13.39-4.557l11.404-4.69c-.631-1.57-2.503-2.685-4.738-2.685-2.846 0-6.8 2.496-6.666 7.375zM124.927 1.497h5.501v36.99h-5.501V1.497zm-8.672 13.862h5.31v22.466c0 9.323-5.558 13.162-12.13 13.162-6.189 0-9.913-4.123-11.308-7.47l4.871-2.005c.878 2.062 2.999 4.502 6.437 4.502 4.222 0 6.82-2.591 6.82-7.433v-1.815h-.191c-1.261 1.513-3.668 2.874-6.724 2.874-6.38 0-12.226-5.503-12.226-12.594 0-7.13 5.846-12.69 12.226-12.69 3.037 0 5.463 1.343 6.724 2.818h.191V15.36zm.382 11.687c0-4.463-2.999-7.716-6.82-7.716-3.858 0-7.106 3.253-7.106 7.716 0 4.406 3.248 7.602 7.106 7.602 3.821.019 6.82-3.196 6.82-7.602zm-49.723-.095c0 7.281-5.73 12.633-12.76 12.633-7.03 0-12.76-5.37-12.76-12.633 0-7.318 5.73-12.651 12.76-12.651 7.03 0 12.76 5.333 12.76 12.651zm-5.578 0c0-4.538-3.324-7.659-7.183-7.659-3.858 0-7.182 3.12-7.182 7.66 0 4.5 3.324 7.658 7.182 7.658 3.86 0 7.183-3.158 7.183-7.659zm33.448.057c0 7.28-5.73 12.632-12.76 12.632-7.03 0-12.76-5.352-12.76-12.632 0-7.319 5.73-12.633 12.76-12.633 7.03 0 12.76 5.295 12.76 12.633zm-5.597 0c0-4.539-3.324-7.66-7.183-7.66-3.858 0-7.182 3.121-7.182 7.66 0 4.5 3.324 7.659 7.182 7.659 3.878 0 7.183-3.177 7.183-7.66zM20.419 34.1c-8.004 0-14.27-6.393-14.27-14.316 0-7.924 6.266-14.316 14.27-14.316 4.317 0 7.469 1.683 9.8 3.84l3.839-3.802C30.81 2.424 26.474.078 20.418.078 9.455.078.229 8.93.229 19.784c0 10.855 9.226 19.705 20.19 19.705 5.923 0 10.393-1.929 13.888-5.522 3.591-3.555 4.7-8.548 4.7-12.595a21.08 21.08 0 00-.325-3.536H20.419v5.257h13.009c-.383 3.291-1.433 5.541-2.98 7.073-1.872 1.872-4.833 3.933-10.03 3.933z"/></g><defs><clipPath id="clip0_43_24"><path fill="#fff" d="M0 0h157v51H0z"/></clipPath></defs></svg>