<svg width="589" height="892" fill="none" xmlns="http://www.w3.org/2000/svg"><path opacity=".4" d="M335.43 255.344c-7.226-4.166-12.411-4.251-15.556-.34-3.23 3.911-4.76 10.542-4.76 19.808v50.157c0 9.521-.85 17.427-2.636 23.718-1.785 6.546-4.76 11.137-8.84 13.857-3.995 2.806-9.436 3.486-16.321 2.211-6.715-1.191-15.131-4.761-25.162-10.542l-4.76-2.805v-39.531l6.036 3.486c7.225 4.165 11.985 4.675 14.365 1.7 2.551-2.976 3.826-9.096 3.826-18.363v-44.206c0-11.562 1.105-20.658 3.4-27.289 2.21-6.716 6.715-10.967 13.431-12.837-6.716-9.606-11.221-19.128-13.431-28.394-2.21-9.266-3.315-19.638-3.315-31.199v-44.207c0-9.266-1.275-16.917-3.826-22.783-2.38-5.78-7.225-10.796-14.365-14.962l-6.036-3.485V29.807l4.76 2.805c10.031 5.781 18.447 11.987 25.162 18.533 6.885 6.63 12.326 13.602 16.321 21.083a81.761 81.761 0 018.84 24.058c1.786 8.332 2.636 17.258 2.636 26.779v50.157c0 9.267 1.615 17.768 4.76 25.334 3.23 7.566 8.415 13.517 15.556 17.597l-.085 39.191z" fill="url(#paint0_linear_26_109)"/><path opacity=".4" d="M153.349 110.058c7.225 4.166 12.41 4.251 15.556.34 3.23-3.91 4.76-10.541 4.76-19.807V40.433c0-9.521.85-17.427 2.635-23.718 1.785-6.546 4.675-11.137 8.671-13.942 4.165-2.72 9.605-3.4 16.32-2.21 6.886 1.275 15.386 4.845 25.417 10.711l4.76 2.806v39.53l-6.035-3.485c-7.226-4.166-12.071-4.76-14.621-1.785-2.38 3.06-3.57 9.18-3.57 18.532v44.206c0 11.477-1.105 20.658-3.4 27.289-2.211 6.716-6.716 10.967-13.431 12.837 6.715 9.607 11.22 19.128 13.431 28.394 2.21 9.267 3.315 19.638 3.315 31.2v44.206c0 9.266 1.19 16.832 3.57 22.698 2.55 5.866 7.395 10.967 14.621 15.047l6.035 3.486v39.531l-4.76-2.806c-10.031-5.781-18.531-12.072-25.417-18.618-6.715-6.545-12.155-13.516-16.321-21.083-3.995-7.396-6.885-15.387-8.585-23.888-1.785-8.331-2.635-17.257-2.635-26.779v-50.157c0-9.266-1.615-17.767-4.76-25.334-3.231-7.566-8.416-13.516-15.556-17.597v-39.446z" fill="url(#paint1_linear_26_109)"/><path opacity=".15" d="M359.996 10.934l179.446 103.63-.085 430.246-179.446-103.544.085-430.332z" fill="url(#paint2_linear_26_109)"/><path d="M326.249 67.297l142.809 82.377v39.531l-142.809-82.377v-39.53z" fill="#587298"/><path opacity=".2" d="M383.373 250.329l135.328 78.126v119.612l-135.328-78.126V250.329z" fill="url(#paint3_linear_26_109)"/><path opacity=".15" d="M382.012 158.6l137.368 79.316v13.517l-137.368-79.316V158.6zm0 27.204l118.752 68.52v13.517l-118.752-68.52v-13.517zm0 26.864l100.816 58.148v13.517l-100.816-58.148v-13.517z" fill="#fff"/><path opacity=".2" d="M359.996 10.934l179.446 103.63v57.638L359.911 68.658l.085-57.724z" fill="url(#paint4_linear_26_109)"/><path opacity=".2" d="M404.794 66.022c0 8.756-5.101 12.837-11.391 9.181-6.29-3.655-11.391-13.602-11.391-22.358s5.101-12.837 11.391-9.181c6.29 3.655 11.391 13.687 11.391 22.358z" fill="#fff"/><path opacity=".15" d="M36.637 142.703L589 461.499 588.915 892 36.552 573.205l.085-430.502z" fill="url(#paint5_linear_26_109)"/><path d="M0 248.798l142.723 82.377v39.53L0 288.414v-39.616z" fill="#EA8C4F"/><path opacity=".15" d="M73.869 357.444L390.768 540.39v13.517l-316.9-182.946v-13.517zm0 27.204L347.245 542.43v13.517L73.869 398.165v-13.517zm0 26.948l232.659 134.319v13.517L73.868 425.113v-13.517z" fill="#fff"/><path opacity=".2" d="M287.742 582.981l278.647 160.843v119.612L287.742 702.593V582.981z" fill="url(#paint6_linear_26_109)"/><path opacity=".15" d="M308.739 618.771l41.992 24.228v39.531l-41.992-24.228v-39.531zm51.428 31.624l41.992 24.229v39.53l-41.992-24.228v-39.531zm51.683 29.329l41.992 24.229v39.531l-41.992-24.229v-39.531zm51.682 31.2l41.993 24.229v39.53l-41.993-24.228v-39.531z" fill="#fff"/><path opacity=".2" d="M22.016 425.029l231.979 133.894v119.612L22.015 544.556V425.029z" fill="url(#paint7_linear_26_109)"/><path opacity=".15" d="M45.392 469.15L229.683 575.5v13.517l-184.29-106.35V469.15zm0 27.204l147.569 85.182v13.517L45.392 509.785v-13.431z" fill="#fff"/><path opacity=".2" d="M36.637 142.703l551.598 318.456v58.318L36.637 201.106v-58.403z" fill="url(#paint8_linear_26_109)"/><path opacity=".2" d="M96.736 206.547c0 8.757-5.1 12.837-11.39 9.182-6.291-3.656-11.392-13.602-11.392-22.359 0-8.756 5.1-12.836 11.391-9.181 6.29 3.656 11.39 13.687 11.39 22.358z" fill="#fff"/><defs><linearGradient id="paint0_linear_26_109" x1="384.36" y1="17.876" x2="245.12" y2="259.239" gradientUnits="userSpaceOnUse"><stop stop-color="#424C57"/><stop offset=".903" stop-color="#fff" stop-opacity="0"/></linearGradient><linearGradient id="paint1_linear_26_109" x1="303.984" y1="1.512" x2="164.727" y2="242.845" gradientUnits="userSpaceOnUse"><stop stop-color="#414B56"/><stop offset=".903" stop-color="#fff" stop-opacity="0"/></linearGradient><linearGradient id="paint2_linear_26_109" x1="542.816" y1="116.519" x2="371.208" y2="413.807" gradientUnits="userSpaceOnUse"><stop stop-color="#fff"/><stop offset="1" stop-color="#fff" stop-opacity="0"/></linearGradient><linearGradient id="paint3_linear_26_109" x1="476.95" y1="304.285" x2="429.254" y2="386.909" gradientUnits="userSpaceOnUse"><stop stop-color="#fff"/><stop offset="1" stop-color="#fff" stop-opacity="0"/></linearGradient><linearGradient id="paint4_linear_26_109" x1="421.521" y1="11.828" x2="476.243" y2="166.739" gradientUnits="userSpaceOnUse"><stop stop-color="#424C58"/><stop offset="1" stop-color="#fff" stop-opacity="0"/></linearGradient><linearGradient id="paint5_linear_26_109" x1="405.97" y1="355.856" x2="315.072" y2="513.362" gradientUnits="userSpaceOnUse"><stop stop-color="#fff"/><stop offset="1" stop-color="#fff" stop-opacity="0"/></linearGradient><linearGradient id="paint6_linear_26_109" x1="452.987" y1="678.347" x2="405.292" y2="760.972" gradientUnits="userSpaceOnUse"><stop stop-color="#fff"/><stop offset="1" stop-color="#fff" stop-opacity="0"/></linearGradient><linearGradient id="paint7_linear_26_109" x1="163.887" y1="506.882" x2="116.192" y2="589.507" gradientUnits="userSpaceOnUse"><stop stop-color="#434D58"/><stop offset="1" stop-color="#fff" stop-opacity="0"/></linearGradient><linearGradient id="paint8_linear_26_109" x1="173.501" y1="95.714" x2="382.973" y2="450.519" gradientUnits="userSpaceOnUse"><stop stop-color="#546F94"/><stop offset="1" stop-color="#fff" stop-opacity="0"/></linearGradient></defs></svg>